HIERARCHY
ROOT Hips
{
    OFFSET 0.000000 0.000000 0.000000
    CHANNELS 6 Xposition Yposition Zposition Zrotation Xrotation Yrotation
    JOINT Spine
    {
        OFFSET -0.000000 8.349382 0.000000
        CHANNELS 3 Zrotation Xrotation Yrotation
        JOINT Spine1
        {
            OFFSET -0.000000 23.269058 0.000000
            CHANNELS 3 Zrotation Xrotation Yrotation
            JOINT Neck
            {
                OFFSET -0.000000 23.173496 2.106681
                CHANNELS 3 Zrotation Xrotation Yrotation
                JOINT Head
                {
                    OFFSET -0.000000 14.255042 -2.036435
                    CHANNELS 3 Zrotation Xrotation Yrotation
                    End Site
                    {
                        OFFSET -0.000000 25.455433 0.000000
                    }
                }
            }
            JOINT LeftShoulder
            {
                OFFSET 3.917082 21.531742 0.000256
                CHANNELS 3 Zrotation Xrotation Yrotation
                JOINT LeftArm
                {
                    OFFSET 10.728225 0.000000 0.000000
                    CHANNELS 3 Zrotation Xrotation Yrotation
                    JOINT LeftForeArm
                    {
                        OFFSET 30.046112 0.000000 0.000000
                        CHANNELS 3 Zrotation Xrotation Yrotation
                        JOINT LeftHand
                        {
                            OFFSET 29.023712 0.000000 0.000000
                            CHANNELS 3 Zrotation Xrotation Yrotation
                            End Site
                            {
                                OFFSET 15.273261 0.000000 0.000000
                            }
                        }
                    }
                }
            }
            JOINT RightShoulder
            {
                OFFSET -3.920664 21.531742 0.000256
                CHANNELS 3 Zrotation Xrotation Yrotation
                JOINT RightArm
                {
                    OFFSET -10.728225 0.000000 0.000000
                    CHANNELS 3 Zrotation Xrotation Yrotation
                    JOINT RightForeArm
                    {
                        OFFSET -30.046112 0.000000 0.000000
                        CHANNELS 3 Zrotation Xrotation Yrotation
                        JOINT RightHand
                        {
                            OFFSET -29.023712 0.000000 0.000000
                            CHANNELS 3 Zrotation Xrotation Yrotation
                            End Site
                            {
                                OFFSET -15.273261 0.000000 0.000000
                            }
                        }
                    }
                }
            }
        }
    }
    JOINT LeftUpLeg
    {
        OFFSET 10.182174 0.000000 0.000000
        CHANNELS 3 Zrotation Xrotation Yrotation
        JOINT LeftLeg
        {
            OFFSET -0.000000 -49.689274 0.000000
            CHANNELS 3 Zrotation Xrotation Yrotation
            JOINT LeftFoot
            {
                OFFSET -0.000000 -39.155319 0.000000
                CHANNELS 3 Zrotation Xrotation Yrotation
                JOINT LeftToeBase
                {
                    OFFSET -0.000000 -6.618412 15.273261
                    CHANNELS 3 Zrotation Xrotation Yrotation
                    End Site
                    {
                        OFFSET -0.000000 0.000000 4.072869
                    }
                }
            }
        }
    }
    JOINT RightUpLeg
    {
        OFFSET -10.182174 0.000000 0.000000
        CHANNELS 3 Zrotation Xrotation Yrotation
        JOINT RightLeg
        {
            OFFSET -0.000000 -49.689274 0.000000
            CHANNELS 3 Zrotation Xrotation Yrotation
            JOINT RightFoot
            {
                OFFSET -0.000000 -39.155319 0.000000
                CHANNELS 3 Zrotation Xrotation Yrotation
                JOINT RightToeBase
                {
                    OFFSET -0.000000 -6.618412 15.273261
                    CHANNELS 3 Zrotation Xrotation Yrotation
                    End Site
                    {
                        OFFSET -0.000000 0.000000 4.072869
                    }
                }
            }
        }
    }
}
MOTION
Frames:    7
Frame Time:    0.008333
32.717461    97.519455    12.440238    0.102373    0.629837    99.785446    -0.532355    -1.105239    0.570010    1.150643    -0.003376    0.575142    2.208894    13.130594    9.373344    -3.858635    -3.205079    9.038459    14.801122    -3.309630    -20.363256    -19.005135    -0.247861    1.409145    1.752124    -1.736017    -0.356678    -2.251575    -1.714506    -0.817924    -14.466978    3.178009    -18.845722    24.332457    1.455134    4.139593    -4.784610    -3.782424    4.937005    -1.795673    -3.632404    3.574303    4.230712    5.826493    -6.639516    -4.730578    -0.979330    -4.989285    0.347307    -4.869834    25.602873    0.000000    0.000000    0.000000    -3.399067    4.125688    -0.943976    4.486670    4.360767    -0.050809    -0.707557    -7.111348    -14.523712    0.000000    0.000000    0.000000    
32.721062    97.515961    12.440550    0.095922    0.632828    99.782249    -0.536452    -1.093277    0.564213    1.145645    -0.001339    0.569317    2.181212    13.123572    9.401924    -3.826612    -3.252626    9.072733    14.804770    -3.308336    -20.342710    -19.020880    -0.191295    1.410634    1.777423    -1.744759    -0.362277    -2.276735    -1.722224    -0.853071    -14.474619    3.078093    -18.820982    24.315477    1.515126    4.103910    -4.771859    -3.850365    4.993333    -1.758841    -3.695177    3.428988    4.230973    5.814917    -6.684846    -4.740723    -0.965656    -4.977562    0.356942    -4.885001    25.638517    0.000000    0.000000    0.000000    -3.408572    4.121862    -0.924354    4.515750    4.376809    -0.106433    -0.731211    -7.143386    -14.518427    0.000000    0.000000    0.000000    
32.724247    97.511971    12.442719    0.087736    0.625834    99.785431    -0.549651    -1.093931    0.565200    1.174076    0.022835    0.570182    2.165713    13.072136    9.425313    -3.827860    -3.248724    9.096427    14.808574    -3.331419    -20.332636    -19.037262    -0.186411    1.396234    1.715163    -1.763719    -0.400299    -2.034279    -1.745322    -0.700873    -14.499534    3.153260    -18.852148    24.371902    1.423688    4.181733    -4.771280    -3.858964    4.999300    -1.659817    -3.700552    3.426266    4.245752    5.794984    -6.727011    -4.759645    -0.941140    -4.964952    0.391616    -4.905624    25.664717    0.000000    0.000000    0.000000    -3.403189    4.115827    -0.942423    4.500143    4.357670    -0.049868    -0.710093    -7.124661    -14.519475    0.000000    0.000000    0.000000    
32.729004    97.508003    12.443550    0.082344    0.621864    99.783173    -0.545369    -1.081222    0.566587    1.159146    0.016529    0.571623    2.185453    13.044317    9.447123    -3.840452    -3.231370    9.116433    14.814606    -3.325312    -20.345404    -19.038399    -0.181864    1.402032    1.724561    -1.768924    -0.400342    -2.023189    -1.750745    -0.690873    -14.475213    3.142905    -18.844135    24.365894    1.413155    4.183965    -4.771281    -3.878865    5.026736    -1.551190    -3.715922    3.415968    4.255891    5.781975    -6.741032    -4.773574    -0.919716    -4.972090    0.406442    -4.929859    25.683363    0.000000    0.000000    0.000000    -3.399123    4.118701    -0.945922    4.515548    4.357640    -0.125619    -0.738419    -7.141178    -14.468950    0.000000    0.000000    0.000000    
32.730614    97.503616    12.443103    0.070035    0.617139    99.795586    -0.547672    -1.077640    0.563837    1.157729    0.013039    0.568834    2.193270    13.018308    9.476233    -3.839659    -3.210822    9.146813    14.818691    -3.330371    -20.362131    -19.041117    -0.187346    1.403169    1.724368    -1.762803    -0.402071    -2.052412    -1.744627    -0.677407    -14.471074    3.131769    -18.832041    24.366621    1.385222    4.181543    -4.714626    -3.838105    5.002907    -1.626925    -3.682530    3.531217    4.266709    5.757366    -6.777843    -4.787188    -0.895447    -4.970534    0.431496    -4.955213    25.697386    0.000000    0.000000    0.000000    -3.399808    4.117153    -0.963825    4.502487    4.324572    -0.052571    -0.718429    -7.123733    -14.497255    0.000000    0.000000    0.000000    
32.731617    97.500351    12.441653    0.047872    0.613542    99.806374    -0.565166    -1.091322    0.568911    1.185375    0.035510    0.573916    2.214745    12.979373    9.486641    -3.895855    -3.203000    9.146983    14.807138    -3.347919    -20.378616    -19.048054    -0.200246    1.394021    1.743952    -1.733623    -0.392706    -2.163859    -1.714043    -0.720872    -14.475547    3.127559    -18.858011    24.367121    1.420209    4.199667    -4.719047    -3.869913    5.046800    -1.597384    -3.709391    3.384463    4.270188    5.729527    -6.784614    -4.792040    -0.883315    -4.987372    0.440686    -4.969008    25.709654    0.000000    0.000000    0.000000    -3.401329    4.106792    -0.980191    4.521822    4.322464    -0.095302    -0.736499    -7.143695    -14.479192    0.000000    0.000000    0.000000    
32.728214    97.496597    12.431129    0.032660    0.610458    99.821098    -0.547631    -1.091206    0.566261    1.169052    0.053646    0.570942    2.184521    12.816239    9.500735    -3.811698    -2.963784    9.181301    14.808279    -3.386093    -20.369513    -19.063835    -0.205265    1.370850    1.740599    -1.740375    -0.385628    -2.185013    -1.720419    -0.740917    -14.465709    3.127802    -18.855394    24.363503    1.395477    4.208192    -4.676031    -3.874637    5.064412    -1.748641    -3.719178    3.347585    4.266026    5.707530    -6.794553    -4.793107    -0.877464    -4.973533    0.462370    -4.976937    25.686764    0.000000    0.000000    0.000000    -3.413269    4.094427    -1.002023    4.537378    4.323066    -0.102151    -0.752673    -7.162957    -14.467288    0.000000    0.000000    0.000000    
